<?xml version="1.0" encoding="UTF-8"?>
<svg id="X_Imagen" data-name="X Imagen" xmlns="http://www.w3.org/2000/svg" viewBox="0 0 712.91 390.48">
  <defs>
    <style>
      .cls-1 {
        fill: #45b5a2;
      }
    </style>
  </defs>
  <path class="cls-1" d="M195.28,275.85c-1.67-1.31-3.32-2.65-4.93-4.03s-3.2-2.77-4.7-4.26c-20.93-20.85-41.8-41.79-62.61-62.76-2.98-3.01-5.69-6.27-8.37-9.55v-1.54c24.32-23.98,48.84-48.28,73.55-72.9l7.05-6.16C233.29,76.63,271.58,38.87,309.46.71l.96-.49,80.11,80.14-114.12,115.05,114.6,114.76-80.77,80.33c-38.22-38.31-76.72-76.36-114.97-114.63Z"/>
  <polygon class="cls-1" points="517.92 0 712.91 195.43 517.02 390.48 437.06 310.16 551.69 194.63 437.57 80.35 517.92 0"/>
  <path d="M195.28,275.85l-114.97,114.63L.47,311.14l-.47-.98.47-.98,114.21-113.92c27.21,26.52,53.75,53.73,80.6,80.6Z"/>
  <path d="M195.28,114.65c-26.42,26.43-52.64,53.09-79.15,79.44l-1.45.68L.03,80.35,80.44.03l.91.42,113.93,114.21Z"/>
</svg>